# xmcd
#
# Track frame offsets: 
#        150
#        15979
#        35134
#        55941
#        72354
#        88133
#        104854
#        116510
#        131200
#        143058
#        161181
#        176990
#
# Disc length: 2518 seconds
#
# Revision: 1
# Processed by: cddbd v1.5.2PL0 Copyright (c) Steve Scherf et al.
# Submitted via: ExactAudioCopyFreeDBPlugin 1.0
#
DISCID=b709d40c
DTITLE=Doug Seegers - Going Down To The River
DYEAR=2014
DGENRE=Country
TTITLE0=Angie's Song
TTITLE1=Going Down To The River
TTITLE2=She (feat Emmylou Harris)
TTITLE3=Lonely Drifter's Cry
TTITLE4=Hard Working Man
TTITLE5=Pour Me
TTITLE6=There'll Be No Teardrops Tonight (feat Buddy Miller)
TTITLE7=Memory Lane
TTITLE8=Gotta Catch That Train
TTITLE9=Burning A Hole In My Pocket
TTITLE10=She's In A Rock 'N' Roll Band
TTITLE11=Baby Lost Her Way Home Again
EXTD=
EXTT0=
EXTT1=
EXTT2=
EXTT3=
EXTT4=
EXTT5=
EXTT6=
EXTT7=
EXTT8=
EXTT9=
EXTT10=
EXTT11=
PLAYORDER=
